<svg version="1.2" xmlns="http://www.w3.org/2000/svg" viewBox="0 0 532 532" width="532" height="532"><style>.a{fill:#4f5b93}.b{opacity:.98;fill:#4f5b93}</style><path fill-rule="evenodd" d="m265.9 531.7c-147.1 0-265.9-118.8-265.9-265.8 0-147.1 118.8-265.9 265.9-265.9 147 0 265.8 118.8 265.8 265.9 0 147-118.8 265.8-265.8 265.8z"/><path fill-rule="evenodd" class="a" d="m210.5 375.9c-60.9 0-110.2-49.3-110.2-110.2 0-60.9 49.3-110.2 110.2-110.2 61 0 110.2 49.3 110.2 110.2 0 60.9-49.2 110.2-110.2 110.2z"/><path class="b" d="m351.8 100.7c4 7.5 3.9 8.7-0.8 12.5-2.8 2.3-5.1 6.7-5.2 9.9 0 4.9 2.7 6.3 19.2 10.4 12.5 3 23.8 8 32.1 13.9 7.7 5.5 15.3 14.2 18.9 21.7 4.8 9.8 5.6 15.7 3.9 27.8-1.8 12.3-4.1 17.6-11.7 26.1-7 7.8-12.8 11.1-22.1 12.6-6.9 1.2-20.8 1.6-30.9 0.9l-18.5-1.1c6.6 22.4 6.3 30.8 2.6 53.7l-4.7 28.6c13.4-0.6 26-2.5 36.6-4.6 10.6-2.1 25.5-6.4 33.1-9.7 7.7-3.3 20.9-11.3 29.5-17.9 8.6-6.6 19.4-17.5 24.1-24.2 6.9-10 9.2-17.1 12.8-38.8 3.9-23.7 3.8-28.5-1.1-46-3-10.8-9.7-26.1-14.8-34-5.1-8-15.5-19.2-23-25.1-7.5-5.9-19.6-13.3-27-16.6-7.3-3.3-17.7-6.8-23.1-7.7-5.3-1-12.6-4-16.1-6.8-4.2-3.3-8.1-4.4-11.6-3.2-2.9 0.9-5.6 3.4-5.9 5.5-0.4 2 1.3 7.5 3.7 12.1z"/></svg>